<svg width="134" height="64" viewBox="0 0 76 52" fill="none" xmlns="http://www.w3.org/2000/svg">
<path d="M2.068 21V6.04H6.622C7.73667 6.04 8.61667 6.20133 9.262 6.524C9.922 6.84667 10.3913 7.30133 10.67 7.888C10.9633 8.47467 11.11 9.164 11.11 9.956V10.572C11.11 11.7307 10.6113 12.618 9.614 13.234C10.318 13.5127 10.8533 13.916 11.22 14.444C11.5867 14.972 11.77 15.6027 11.77 16.336V16.952C11.77 17.7587 11.6233 18.47 11.33 19.086C11.0367 19.6873 10.5527 20.1567 9.878 20.494C9.20333 20.8313 8.30133 21 7.172 21H2.068ZM6.622 8.46H4.708V12.2H6.622C7.20867 12.2 7.64867 12.068 7.942 11.804C8.25 11.5253 8.404 11.1513 8.404 10.682V9.956C8.404 9.48667 8.25 9.12 7.942 8.856C7.64867 8.592 7.20867 8.46 6.622 8.46ZM7.172 14.62H4.708V18.58H7.172C7.788 18.58 8.25733 18.4333 8.58 18.14C8.90267 17.8467 9.064 17.4507 9.064 16.952V16.226C9.064 15.7273 8.90267 15.3387 8.58 15.06C8.25733 14.7667 7.788 14.62 7.172 14.62ZM23.0551 21.11C22.3071 21.11 21.7058 20.956 21.2511 20.648C20.8111 20.34 20.4885 19.9587 20.2831 19.504C19.6525 20.0907 19.0438 20.5233 18.4571 20.802C17.8705 21.0807 17.2398 21.22 16.5651 21.22C15.5825 21.22 14.8565 20.9047 14.3871 20.274C13.9325 19.6433 13.7051 18.844 13.7051 17.876C13.7051 17.2307 13.8225 16.666 14.0571 16.182C14.3065 15.6833 14.7098 15.2947 15.2671 15.016C15.8245 14.7373 16.5871 14.598 17.5551 14.598C17.9365 14.598 18.3325 14.6273 18.7431 14.686C19.1538 14.73 19.5645 14.7887 19.9751 14.862V13.564C19.9751 12.948 19.8065 12.53 19.4691 12.31C19.1318 12.0753 18.6771 11.958 18.1051 11.958C17.6651 11.958 17.1811 12.0167 16.6531 12.134C16.1398 12.2513 15.5825 12.4347 14.9811 12.684L14.2551 10.528C15.7365 9.92667 17.0785 9.626 18.2811 9.626C19.3665 9.626 20.2025 9.80933 20.7891 10.176C21.3905 10.5427 21.8085 11.0267 22.0431 11.628C22.2778 12.2293 22.3951 12.8747 22.3951 13.564V17.854C22.3951 18.074 22.4538 18.2867 22.5711 18.492C22.7031 18.6827 22.9525 18.778 23.3191 18.778H23.5611V21.11H23.0551ZM16.1471 17.832C16.1471 18.228 16.2351 18.5433 16.4111 18.778C16.5871 18.998 16.8438 19.108 17.1811 19.108C17.5185 19.108 17.8998 19.02 18.3251 18.844C18.7505 18.668 19.3005 18.2573 19.9751 17.612V16.666C19.2125 16.534 18.4645 16.468 17.7311 16.468C17.1591 16.468 16.7485 16.5853 16.4991 16.82C16.2645 17.0547 16.1471 17.392 16.1471 17.832ZM25.6915 17.854V4.72H28.2215V17.854C28.2215 18.074 28.2729 18.2867 28.3755 18.492C28.4929 18.6827 28.7129 18.778 29.0355 18.778H29.3875V21.11H28.7715C27.9355 21.11 27.2975 20.9487 26.8575 20.626C26.4175 20.3033 26.1095 19.8927 25.9335 19.394C25.7722 18.8953 25.6915 18.382 25.6915 17.854ZM40.2856 21.11C39.5376 21.11 38.9363 20.956 38.4816 20.648C38.0416 20.34 37.7189 19.9587 37.5136 19.504C36.8829 20.0907 36.2743 20.5233 35.6876 20.802C35.1009 21.0807 34.4703 21.22 33.7956 21.22C32.8129 21.22 32.0869 20.9047 31.6176 20.274C31.1629 19.6433 30.9356 18.844 30.9356 17.876C30.9356 17.2307 31.0529 16.666 31.2876 16.182C31.5369 15.6833 31.9403 15.2947 32.4976 15.016C33.0549 14.7373 33.8176 14.598 34.7856 14.598C35.1669 14.598 35.5629 14.6273 35.9736 14.686C36.3843 14.73 36.7949 14.7887 37.2056 14.862V13.564C37.2056 12.948 37.0369 12.53 36.6996 12.31C36.3623 12.0753 35.9076 11.958 35.3356 11.958C34.8956 11.958 34.4116 12.0167 33.8836 12.134C33.3703 12.2513 32.8129 12.4347 32.2116 12.684L31.4856 10.528C32.9669 9.92667 34.3089 9.626 35.5116 9.626C36.5969 9.626 37.4329 9.80933 38.0196 10.176C38.6209 10.5427 39.0389 11.0267 39.2736 11.628C39.5083 12.2293 39.6256 12.8747 39.6256 13.564V17.854C39.6256 18.074 39.6843 18.2867 39.8016 18.492C39.9336 18.6827 40.1829 18.778 40.5496 18.778H40.7916V21.11H40.2856ZM33.3776 17.832C33.3776 18.228 33.4656 18.5433 33.6416 18.778C33.8176 18.998 34.0743 19.108 34.4116 19.108C34.7489 19.108 35.1303 19.02 35.5556 18.844C35.9809 18.668 36.5309 18.2573 37.2056 17.612V16.666C36.4429 16.534 35.6949 16.468 34.9616 16.468C34.3896 16.468 33.9789 16.5853 33.7296 16.82C33.4949 17.0547 33.3776 17.392 33.3776 17.832ZM48.444 11.98C48.0773 11.98 47.6593 12.068 47.19 12.244C46.7207 12.42 46.1633 12.7647 45.518 13.278V21H42.988V9.846H45.386V11.342C46.0753 10.7407 46.728 10.308 47.344 10.044C47.96 9.76533 48.5833 9.626 49.214 9.626C50.2847 9.626 51.0987 9.97067 51.656 10.66C52.2133 11.3347 52.492 12.288 52.492 13.52V21H49.962V13.828C49.962 12.596 49.456 11.98 48.444 11.98ZM57.7717 14.774V16.072C57.7717 17.0107 57.9403 17.7147 58.2777 18.184C58.615 18.6533 59.1577 18.888 59.9057 18.888C60.2723 18.888 60.683 18.844 61.1377 18.756C61.607 18.6533 62.113 18.4993 62.6557 18.294L63.3817 20.428C62.7217 20.692 62.0983 20.89 61.5117 21.022C60.925 21.154 60.3457 21.22 59.7737 21.22C58.307 21.22 57.185 20.7507 56.4077 19.812C55.6303 18.8733 55.2417 17.6267 55.2417 16.072V14.774C55.2417 13.2047 55.6303 11.958 56.4077 11.034C57.185 10.0953 58.307 9.626 59.7737 9.626C60.331 9.626 60.8957 9.692 61.4677 9.824C62.0397 9.956 62.641 10.1467 63.2717 10.396L62.5457 12.574C61.4897 12.1633 60.6097 11.958 59.9057 11.958C59.1577 11.958 58.615 12.1927 58.2777 12.662C57.9403 13.1167 57.7717 13.8207 57.7717 14.774ZM74.167 20.362C73.4043 20.67 72.6857 20.89 72.011 21.022C71.3363 21.154 70.6983 21.22 70.097 21.22C68.4397 21.22 67.1857 20.7507 66.335 19.812C65.4843 18.8733 65.059 17.6267 65.059 16.072V14.752C65.059 13.7107 65.2497 12.8087 65.631 12.046C66.0123 11.2833 66.555 10.6893 67.259 10.264C67.963 9.83867 68.7917 9.626 69.745 9.626C70.5223 9.626 71.2483 9.78733 71.923 10.11C72.6123 10.418 73.1697 10.9093 73.595 11.584C74.035 12.244 74.255 13.0947 74.255 14.136C74.255 14.444 74.233 14.774 74.189 15.126C74.145 15.4633 74.0717 15.8227 73.969 16.204H67.501C67.5303 17.1133 67.7577 17.7953 68.183 18.25C68.6083 18.7047 69.2903 18.932 70.229 18.932C70.7277 18.932 71.241 18.8733 71.769 18.756C72.3117 18.6387 72.869 18.4627 73.441 18.228L74.167 20.362ZM69.745 11.76C69.0703 11.76 68.5423 11.98 68.161 12.42C67.7943 12.8453 67.5817 13.4613 67.523 14.268H71.747C71.7617 14.1947 71.769 14.1287 71.769 14.07C71.769 13.9967 71.769 13.9307 71.769 13.872C71.769 13.168 71.571 12.64 71.175 12.288C70.779 11.936 70.3023 11.76 69.745 11.76ZM2.068 47V32.04H6.622C7.73667 32.04 8.61667 32.2013 9.262 32.524C9.922 32.8467 10.3913 33.3013 10.67 33.888C10.9633 34.4747 11.11 35.164 11.11 35.956V36.572C11.11 37.7307 10.6113 38.618 9.614 39.234C10.318 39.5127 10.8533 39.916 11.22 40.444C11.5867 40.972 11.77 41.6027 11.77 42.336V42.952C11.77 43.7587 11.6233 44.47 11.33 45.086C11.0367 45.6873 10.5527 46.1567 9.878 46.494C9.20333 46.8313 8.30133 47 7.172 47H2.068ZM6.622 34.46H4.708V38.2H6.622C7.20867 38.2 7.64867 38.068 7.942 37.804C8.25 37.5253 8.404 37.1513 8.404 36.682V35.956C8.404 35.4867 8.25 35.12 7.942 34.856C7.64867 34.592 7.20867 34.46 6.622 34.46ZM7.172 40.62H4.708V44.58H7.172C7.788 44.58 8.25733 44.4333 8.58 44.14C8.90267 43.8467 9.064 43.4507 9.064 42.952V42.226C9.064 41.7273 8.90267 41.3387 8.58 41.06C8.25733 40.7667 7.788 40.62 7.172 40.62ZM17.2031 33.734H14.5411V31.116H17.2031V33.734ZM17.1371 47H14.6071V35.846H17.1371V47ZM27.3328 46.626C26.9514 46.802 26.5114 46.9413 26.0128 47.044C25.5141 47.1613 25.0081 47.22 24.4948 47.22C23.6441 47.22 22.9621 47.044 22.4488 46.692C21.9354 46.34 21.5614 45.8487 21.3268 45.218C21.1068 44.5873 20.9968 43.8687 20.9968 43.062V38.046H19.1928V35.846H20.9968V32.942H23.5268V35.846H27.0028V38.046H23.5268V43.062C23.5268 43.7367 23.6514 44.206 23.9008 44.47C24.1648 44.7193 24.5388 44.844 25.0228 44.844C25.2574 44.844 25.5068 44.822 25.7708 44.778C26.0494 44.7193 26.3574 44.624 26.6948 44.492L27.3328 46.626ZM37.8369 46.362C37.0742 46.67 36.3556 46.89 35.6809 47.022C35.0062 47.154 34.3682 47.22 33.7669 47.22C32.1096 47.22 30.8556 46.7507 30.0049 45.812C29.1542 44.8733 28.7289 43.6267 28.7289 42.072V40.752C28.7289 39.7107 28.9196 38.8087 29.3009 38.046C29.6822 37.2833 30.2249 36.6893 30.9289 36.264C31.6329 35.8387 32.4616 35.626 33.4149 35.626C34.1922 35.626 34.9182 35.7873 35.5929 36.11C36.2822 36.418 36.8396 36.9093 37.2649 37.584C37.7049 38.244 37.9249 39.0947 37.9249 40.136C37.9249 40.444 37.9029 40.774 37.8589 41.126C37.8149 41.4633 37.7416 41.8227 37.6389 42.204H31.1709C31.2002 43.1133 31.4276 43.7953 31.8529 44.25C32.2782 44.7047 32.9602 44.932 33.8989 44.932C34.3976 44.932 34.9109 44.8733 35.4389 44.756C35.9816 44.6387 36.5389 44.4627 37.1109 44.228L37.8369 46.362ZM33.4149 37.76C32.7402 37.76 32.2122 37.98 31.8309 38.42C31.4642 38.8453 31.2516 39.4613 31.1929 40.268H35.4169C35.4316 40.1947 35.4389 40.1287 35.4389 40.07C35.4389 39.9967 35.4389 39.9307 35.4389 39.872C35.4389 39.168 35.2409 38.64 34.8449 38.288C34.4489 37.936 33.9722 37.76 33.4149 37.76ZM43.9636 45.02C44.5062 45.02 44.9536 44.932 45.3056 44.756C45.6576 44.5653 45.8336 44.2867 45.8336 43.92C45.8336 43.5973 45.7162 43.348 45.4816 43.172C45.2616 42.9813 44.8582 42.8127 44.2716 42.666L43.0176 42.336C42.0496 42.0867 41.3309 41.6687 40.8616 41.082C40.4069 40.4953 40.1796 39.7987 40.1796 38.992C40.1796 38.0387 40.5096 37.2393 41.1696 36.594C41.8296 35.9487 42.8489 35.626 44.2276 35.626C44.7849 35.626 45.3716 35.692 45.9876 35.824C46.6036 35.956 47.2489 36.1687 47.9236 36.462L47.1976 38.618C46.5816 38.3247 46.0242 38.1193 45.5256 38.002C45.0269 37.8847 44.5869 37.826 44.2056 37.826C43.1642 37.826 42.6436 38.178 42.6436 38.882C42.6436 39.1607 42.7316 39.3807 42.9076 39.542C43.0982 39.7033 43.4429 39.85 43.9416 39.982L45.1956 40.312C46.2662 40.5907 47.0436 41.016 47.5276 41.588C48.0262 42.16 48.2756 42.8787 48.2756 43.744C48.2756 44.7707 47.9236 45.6067 47.2196 46.252C46.5302 46.8973 45.4376 47.22 43.9416 47.22C42.6656 47.22 41.3236 46.9267 39.9156 46.34L40.5976 44.25C41.2869 44.5287 41.9102 44.7267 42.4676 44.844C43.0249 44.9613 43.5236 45.02 43.9636 45.02Z" fill="currentColor" />
<path d="M57 47H67" fill="currentColor" />
<path d="M62 47C64.3869 47 66.6761 46.0518 68.364 44.364C70.0518 42.6761 71 40.3869 71 38H53C53 40.3869 53.9482 42.6761 55.636 44.364C57.3239 46.0518 59.6131 47 62 47Z" fill="currentColor" />
<path d="M61.38 38C60.7744 38.0056 60.189 37.7821 59.7413 37.3742C59.2936 36.9663 59.0166 36.4042 58.966 35.8007C58.9154 35.1971 59.0949 34.5968 59.4684 34.12C59.8419 33.6432 60.3819 33.3253 60.98 33.23C60.8842 32.8062 60.9053 32.3644 61.0409 31.9517C61.1766 31.5389 61.4217 31.1708 61.7502 30.8864C62.0787 30.6021 62.4782 30.4122 62.9061 30.3371C63.334 30.262 63.7743 30.3045 64.18 30.46C64.3576 30.1804 64.5912 29.9405 64.8661 29.7556C65.141 29.5707 65.4511 29.4446 65.7771 29.3855C66.1031 29.3263 66.4377 29.3352 66.7601 29.4117C67.0824 29.4882 67.3854 29.6307 67.65 29.83C68.1116 29.4672 68.6901 29.2862 69.2761 29.3212C69.8621 29.3562 70.415 29.6048 70.8301 30.0199C71.2452 30.435 71.4938 30.9879 71.5288 31.5739C71.5638 32.1599 71.3828 32.7384 71.02 33.2C71.2458 33.4999 71.3981 33.8486 71.4646 34.2181C71.5312 34.5876 71.5101 34.9676 71.4031 35.3274C71.2961 35.6873 71.1062 36.017 70.8486 36.2901C70.591 36.5633 70.273 36.7721 69.92 36.9C70.0112 37.2599 70.0215 37.6356 69.95 38" fill="currentColor"/>
<path d="M63 38L67 34" fill="currentColor"/>
<path d="M60.9 33.25C60.3515 32.6653 59.6395 32.2593 58.857 32.0851C58.0744 31.9109 57.2575 31.9765 56.5127 32.2733C55.768 32.5701 55.1299 33.0844 54.6817 33.7492C54.2335 34.4139 53.9959 35.1983 54 36C54 36.73 54.2 37.41 54.54 38" fill="currentColor"/>
<path fill-rule="evenodd" clip-rule="evenodd" d="M102.111 33.2383C102.979 32.3744 104.154 31.8893 105.379 31.8893C106.603 31.8893 107.778 32.3744 108.646 33.2383L108.649 33.2406L114.49 39.0824C115.021 39.6129 115.021 40.4731 114.49 41.0036C113.96 41.5342 113.1 41.5342 112.569 41.0036L106.73 35.1642C106.729 35.1639 106.73 35.1645 106.73 35.1642C106.371 34.8076 105.885 34.6064 105.379 34.6064C104.873 34.6064 104.387 34.8066 104.028 35.1633C104.028 35.1636 104.028 35.1639 104.027 35.1642L100.5 38.6918C100.499 38.6921 100.499 38.6924 100.499 38.6927C100.142 39.0516 99.942 39.537 99.942 40.043C99.942 40.549 100.142 41.0344 100.499 41.3933C100.499 41.3936 100.499 41.393 100.499 41.3933L106.339 47.2336C106.87 47.7642 106.87 48.6244 106.339 49.1549C105.809 49.6855 104.948 49.6855 104.418 49.1549L98.5762 43.3132L98.5738 43.3108C97.7099 42.4427 97.2249 41.2678 97.2249 40.043C97.2249 38.8182 97.7099 37.6433 98.5738 36.7752L98.5762 36.7728L102.111 33.2383Z" fill="currentColor"/>
<path fill-rule="evenodd" clip-rule="evenodd" d="M110.415 35.0067C110.945 35.5373 110.945 36.3974 110.415 36.928L107.698 39.6451C107.167 40.1756 106.307 40.1756 105.776 39.6451C105.246 39.1145 105.246 38.2544 105.776 37.7238L108.494 35.0067C109.024 34.4762 109.884 34.4762 110.415 35.0067Z" fill="currentColor"/>
<path fill-rule="evenodd" clip-rule="evenodd" d="M124 48.5922C124.531 49.1227 124.531 49.9829 124 50.5135L121.283 53.2306C120.753 53.7611 119.892 53.7611 119.362 53.2306C118.831 52.7 118.831 51.8398 119.362 51.3093L122.079 48.5922C122.61 48.0617 123.47 48.0617 124 48.5922Z" fill="currentColor"/>
<path fill-rule="evenodd" clip-rule="evenodd" d="M118.003 44.5166C118.534 43.986 119.394 43.986 119.925 44.5166L125.766 50.3583C127.574 52.1659 127.574 55.0911 125.766 56.8986L122.234 60.4308C120.427 62.2384 117.501 62.2384 115.694 60.4308L109.852 54.5891C109.322 54.0586 109.322 53.1984 109.852 52.6678C110.383 52.1373 111.243 52.1373 111.773 52.6678L117.615 58.5096C118.362 59.2561 119.566 59.2561 120.313 58.5096L123.845 54.9774C124.592 54.2309 124.592 53.0261 123.845 52.2796L118.003 46.4378C117.473 45.9073 117.473 45.0471 118.003 44.5166Z" fill="currentColor"/>
<path fill-rule="evenodd" clip-rule="evenodd" d="M118.259 33.4102C119.232 32.4374 120.552 31.891 121.928 31.8911C123.304 31.8913 124.623 32.4381 125.596 33.4112C126.569 34.3843 127.115 35.7039 127.115 37.0799C127.115 38.4559 126.568 39.7754 125.595 40.7483L107.463 58.8833L107.461 58.8849C106.989 59.3558 106.408 59.7036 105.77 59.8977L99.8517 61.6923C99.4994 61.7982 99.125 61.8067 98.7682 61.717C98.4115 61.6273 98.0856 61.4427 97.8253 61.1828C97.5649 60.9229 97.3798 60.5974 97.2896 60.2407C97.1993 59.8841 97.2073 59.5097 97.3126 59.1572L97.3143 59.1516L99.1089 53.2392L99.11 53.2356C99.3057 52.5973 99.6552 52.0169 100.128 51.5453C100.128 51.5449 100.129 51.5446 100.129 51.5442L118.259 33.4102ZM120.18 35.3318C120.18 35.3318 120.18 35.3317 120.18 35.3318L102.049 53.4668L102.047 53.4683C101.89 53.6251 101.774 53.8182 101.708 54.0305C101.708 54.031 101.708 54.0316 101.708 54.0321L100.284 58.7218L104.979 57.2982C105.191 57.2336 105.385 57.118 105.542 56.9615C105.542 56.9612 105.542 56.9619 105.542 56.9615L123.674 38.827C124.137 38.3636 124.398 37.7349 124.398 37.0796C124.398 36.4242 124.138 35.7957 123.674 35.3322C123.211 34.8687 122.583 34.6083 121.927 34.6082C121.272 34.6082 120.643 34.8686 120.18 35.3318Z" fill="currentColor"/>
<path fill-rule="evenodd" clip-rule="evenodd" d="M115.286 36.3653C115.817 35.8347 116.677 35.8347 117.208 36.3653L122.642 41.7995C123.172 42.33 123.172 43.1902 122.642 43.7207C122.111 44.2513 121.251 44.2513 120.72 43.7207L115.286 38.2865C114.756 37.756 114.756 36.8958 115.286 36.3653Z" fill="currentColor"/>
</svg>

